# xmcd
#
# Track frame offsets:
#	150
#	14755
#	36854
#	51036
#	66499
#	79551
#	89946
#	102406
#	116426
#	129513
#	144781
#	158203
#	179072
#	196040
#	207397
#	219187
#	232805
#	251076
#	267764
#	284440
#	298857
#	311464
#	324214
#	337928
#
# Disc length: 4793 seconds
#
# Revision: 1
# Processed by: cddbd v1.5.1PL2 Copyright (c) Steve Scherf et al.
# Submitted via: audiograbber 1.83.01
#
DISCID=6212b718
DTITLE=Verschiedene - Country Mix 4
DYEAR=1900
DGENRE=Country
TTITLE0=John Denver - Take Me Home Country Roads
TTITLE1=Travis Tritt - Tell Me I Was Dreaming
TTITLE2=Bastard Sons - Texas Sun
TTITLE3=John Denver - Thank's God I'm A Country Boy
TTITLE4=Connie Smith - The Hurtin's All Over
TTITLE5=Tom T . Hall - The Last Country Song
TTITLE6=Charlie Pride - The Most Beautiful Girl
TTITLE7=Moe Bandy - The Rodeo Clown
TTITLE8=The Browns - The Tree Bells
TTITLE9=Neal Mc Coy - They're Playing Our Song
TTITLE10=Hal Ketchum - Town Saturday Night
TTITLE11=Texas Country - Uno Mas Cerveza
TTITLE12=Farmer's Daughter - Walking In The Sunshine
TTITLE13=Stonewall Jackson - Waterloo
TTITLE14=Jim Reeves and Patsy Cline - Welcome To My World
TTITLE15=George Jones and Tammy Wynette - We're Gonna Hold On
TTITLE16=Kellie Coffey - When You Lie Next To Me
TTITLE17=Darry Worley - When You Need My Love
TTITLE18=Allison Krauss - When You Say Nothing At All
TTITLE19=George Straight - Where The Sidewalk Ends
TTITLE20=Rednecks - White Socks And Blue Ribbon Beer
TTITLE21=Tanya Tucker - Would You Lay With Me
TTITLE22=Waylon Jennings - Wrong
TTITLE23=Garth Brooks and Dunn - Your Gonna Miss Me
EXTD=
EXTT0=
EXTT1=
EXTT2=
EXTT3=
EXTT4=
EXTT5=
EXTT6=
EXTT7=
EXTT8=
EXTT9=
EXTT10=
EXTT11=
EXTT12=
EXTT13=
EXTT14=
EXTT15=
EXTT16=
EXTT17=
EXTT18=
EXTT19=
EXTT20=
EXTT21=
EXTT22=
EXTT23=
PLAYORDER=
